<svg aria-hidden="true" style="position: absolute; width: 0; height: 0; overflow: hidden;" version="1.1" xmlns="http://www.w3.org/2000/svg" xmlns:xlink="http://www.w3.org/1999/xlink">
<defs>

<symbol id="icon-cart" viewBox="0 0 31 32">
<path d="M31.182 9.040v0l-4.409 9.778c-0.22 0.488-0.689 0.829-1.241 0.86l-0.004 0-12.658 0.844 0.729 2.092h13.796c1.62 0 2.933 1.313 2.933 2.933s-1.313 2.933-2.933 2.933c-1.619 0-2.932-1.312-2.933-2.931v-0h-13.689c-0.001 1.619-1.314 2.932-2.933 2.932s-2.933-1.313-2.933-2.933 1.313-2.933 2.933-2.933h2.649l-5.653-16.133h-3.36c-0.81 0-1.467-0.657-1.467-1.467s0.657-1.467 1.467-1.467h4.409c0.636 0.005 1.177 0.409 1.383 0.975l0.003 0.010 0.853 2.441h21.707c0.002 0 0.005-0 0.007-0 0.81 0 1.467 0.656 1.468 1.467v0c-0.005 0.217-0.050 0.422-0.129 0.61l0.004-0.011zM9.156 9.906l2.702 7.746 12.604-0.841 3.111-6.905h-18.418z"></path>
</symbol>

<symbol id="icon-glass" viewBox="0 0 32 32">
<path d="M31.101 26.862c0.541 0.543 0.876 1.292 0.876 2.119 0 1.657-1.343 3-3 3-0.83 0-1.581-0.337-2.124-0.881l-0-0-8.769-8.78c-1.753 1.056-3.87 1.68-6.132 1.68-6.645 0-12.032-5.387-12.032-12.032s5.387-12.032 12.032-12.032c6.645 0 12.032 5.387 12.032 12.032 0 2.255-0.62 4.365-1.7 6.169l0.030-0.055 8.788 8.78zM12.001 3.016c-4.963 0-8.987 4.024-8.987 8.987s4.024 8.987 8.987 8.987c4.963 0 8.987-4.024 8.987-8.987v0c-0.003-4.962-4.025-8.984-8.987-8.987h-0z"></path>
</symbol>

</defs>
</svg>
