<svg aria-hidden="true" style="position:absolute;width:0;height:0" xmlns="http://www.w3.org/2000/svg" overflow="hidden"><defs><symbol id="icon-cart" viewBox="0 0 31 32"><path d="M31.182 9.04l-4.409 9.778c-.22.488-.689.829-1.241.86h-.004l-12.658.844.729 2.092h13.796a2.933 2.933 0 11-2.933 2.935H10.773a2.934 2.934 0 11-2.933-2.934h2.649L4.836 6.482h-3.36a1.467 1.467 0 010-2.934h4.409a1.484 1.484 0 011.383.975l.003.01.853 2.441h21.714c.81 0 1.467.656 1.468 1.467-.005.217-.05.422-.129.61l.004-.011zm-22.026.866l2.702 7.746 12.604-.841 3.111-6.905H9.155z"/></symbol><symbol id="icon-glass" viewBox="0 0 32 32"><path d="M31.101 26.862a3 3 0 11-4.248 4.238l-8.769-8.78A11.896 11.896 0 0111.952 24C5.307 24-.08 18.613-.08 11.968S5.307-.064 11.952-.064c6.645 0 12.032 5.387 12.032 12.032 0 2.255-.62 4.365-1.7 6.169l.03-.055 8.788 8.78zm-19.1-23.846a8.987 8.987 0 108.987 8.987 8.993 8.993 0 00-8.987-8.987z"/></symbol></defs></svg>